<?xml version="1.0" encoding="UTF-8"?>
<svg id="_レイヤー_2" data-name="レイヤー 2" xmlns="http://www.w3.org/2000/svg" viewBox="0 0 452.4 90.48">
  <defs>
    <style>
      .cls-1 {
        fill: #064e3b;
      }

      .cls-2 {
        fill: #10b981;
      }
    </style>
  </defs>
  <g id="_レイヤー_1-2" data-name="レイヤー 1">
    <g>
      <path class="cls-2" d="M78.19,65.89c-1.86,0-3.63.42-5.21,1.16l-8.33-8.33c-.65-.65-.65-1.72,0-2.37l8.33-8.33c1.58.74,3.35,1.16,5.21,1.16,6.79,0,12.29-5.5,12.29-12.29s-5.5-12.29-12.29-12.29-12.29,5.5-12.29,12.29c0,1.86.42,3.63,1.16,5.21l-10.76,10.76c-.31.31-.74.49-1.19.49h-16.29c-.93,0-1.68-.75-1.68-1.68v-16.29c0-.44.18-.87.49-1.19l10.76-10.76c1.58.74,3.35,1.16,5.21,1.16,6.79,0,12.29-5.5,12.29-12.29S60.39,0,53.6,0s-12.29,5.5-12.29,12.29c0,1.86.42,3.63,1.16,5.21l-8.33,8.33c-.65.65-1.72.65-2.37,0l-8.33-8.33c.74-1.58,1.16-3.35,1.16-5.21C24.59,5.5,19.08,0,12.29,0S0,5.5,0,12.29s5.5,12.29,12.29,12.29c1.86,0,3.63-.42,5.21-1.16l10.76,10.76c.31.31.49.74.49,1.19v19.72c0,.44-.18.87-.49,1.19l-21.93,21.93c-.65.65-.65,1.72,0,2.37l3.56,3.56c.65.65,1.72.65,2.37,0l21.93-21.93c.31-.31.74-.49,1.19-.49h19.72c.44,0,.87.18,1.19.49l10.76,10.77c-.74,1.58-1.16,3.35-1.16,5.21,0,6.79,5.5,12.29,12.29,12.29s12.29-5.5,12.29-12.29-5.5-12.29-12.29-12.29Z"/>
      <g>
        <path class="cls-1" d="M127.23,54.55c.81-1.16,1.52-2.5,2.33-3.67s2.07-1.52,3.05-.72c.54.45,7.44,6.18,14.34,6.18,6.18,0,10.12-3.76,10.12-8.33,0-5.37-4.66-8.78-13.52-12.45-9.14-3.85-16.31-8.61-16.31-19,0-6.99,5.37-16.57,19.63-16.57,8.96,0,15.68,4.66,16.57,5.28.72.46,1.44,1.71.53,3.05-.72,1.08-1.52,2.33-2.24,3.41-.71,1.16-1.87,1.71-3.13.9-.62-.36-6.9-4.48-12.09-4.48-7.53,0-10.13,4.74-10.13,8.06,0,5.1,3.94,8.25,11.38,11.29,10.39,4.21,19.26,9.13,19.26,20.06,0,9.31-8.33,16.93-19.98,16.93-10.93,0-17.83-5.73-19.26-7.07-.81-.72-1.44-1.35-.54-2.87Z"/>
        <path class="cls-1" d="M174.39,30.1c-.54-1.16.18-2.33,1.52-2.33h5.91c.53,0,1.25.45,1.52.99l11.11,23.83h.09l10.75-23.83c.36-.81,1.08-.99,1.88-.99h5.11c1.43,0,2.14,1.16,1.52,2.33l-27.42,59.32c-.27.53-.81,1.07-1.52,1.07h-5.37c-1.35,0-2.15-1.16-1.52-2.42l12-25.71-15.58-32.26Z"/>
        <path class="cls-1" d="M224.31,29.47c0-.9.81-1.71,1.71-1.71h2.59c.72,0,1.26.45,1.44,1.08l1.08,3.05c.63-.72,5.37-5.02,12.54-5.02,10.92,0,14.96,7.7,14.96,17.02v18.02c0,.89-.81,1.7-1.7,1.7h-5.11c-.98,0-1.7-.81-1.7-1.7v-18.37c0-5.74-2.78-8.88-7.44-8.88-5.64,0-9.5,4.12-9.94,5.37v21.87c0,1.16-.53,1.7-2.06,1.7h-4.66c-.9,0-1.71-.81-1.71-1.7V29.47Z"/>
        <path class="cls-1" d="M278.63,9.31h-14.6c-.99,0-1.7-.81-1.7-1.7V2.59c0-.89.71-1.7,1.7-1.7h38.53c.98,0,1.7.81,1.7,1.7v5.02c0,.89-.72,1.7-1.7,1.7h-14.6v52.59c0,.89-.81,1.7-1.71,1.7h-5.91c-.9,0-1.71-.81-1.71-1.7V9.31Z"/>
        <path class="cls-1" d="M321.12,26.87c10.03,0,18.09,8.6,18.09,18.72s-8.06,18.9-18.09,18.9-18.1-8.6-18.1-18.9,8.06-18.72,18.1-18.72ZM321.12,56.79c5.64,0,10.12-5.02,10.12-11.2s-4.48-10.93-10.12-10.93-10.13,4.93-10.13,10.93,4.48,11.2,10.13,11.2Z"/>
        <path class="cls-1" d="M360.39,88.78c0,.98-.63,1.7-1.88,1.7h-5.02c-.9,0-1.71-.81-1.71-1.7V29.47c0-.9.81-1.71,1.71-1.71h2.69c.72,0,1.16.36,1.52,1.16l.89,2.33c.63-.62,4.3-4.39,10.93-4.39,9.85,0,17.1,8.6,17.1,18.9s-7.7,18.72-17.46,18.72c-4.66,0-8.16-2.06-8.78-2.42v26.7ZM368.09,56.79c5.91,0,10.22-4.93,10.22-11.02s-3.76-11.11-9.86-11.11c-5.2,0-7.89,4.12-8.25,5.2v14.33s3.13,2.6,7.89,2.6Z"/>
        <path class="cls-1" d="M397.42,7.97c0-2.95,2.24-5.28,5.1-5.28s5.29,2.33,5.29,5.28-2.33,5.2-5.29,5.2-5.1-2.33-5.1-5.2ZM398.4,29.47c0-.9.81-1.71,1.71-1.71h5.1c.89,0,1.71.81,1.71,1.71v32.43c0,.89-.81,1.7-1.71,1.7h-5.1c-.9,0-1.71-.81-1.71-1.7V29.47Z"/>
        <path class="cls-1" d="M438.28,26.87c5.47,0,9.68,2.24,12.99,6.36.63.81.46,1.87-.36,2.5l-2.95,2.69c-1.08.99-1.71.27-2.42-.36-1.61-1.79-4.21-3.41-7.16-3.41-5.83,0-10.4,4.93-10.4,11.02s4.48,11.11,10.3,11.11c4.57,0,6.45-2.33,8.33-4.12.81-.81,1.61-.81,2.42-.18l2.42,1.97c.89.72,1.25,1.61.63,2.51-2.87,4.57-7.71,7.52-13.89,7.52-10.03,0-18.72-7.97-18.72-18.72s8.87-18.9,18.81-18.9Z"/>
      </g>
    </g>
  </g>
</svg>